<svg xmlns="http://www.w3.org/2000/svg" viewBox="0 0 84.01 84.01"><defs><style>.cls-1{fill:#f4901e;}</style></defs><title>be_orange</title><g id="Слой_2" data-name="Слой 2"><g id="Layer_1" data-name="Layer 1"><path class="cls-1" d="M56.22,38.61c-4.78,0-5.45,4.77-5.45,4.77H60.93S61,38.61,56.22,38.61Z"/><path class="cls-1" d="M33.17,43.38h-9v8.27h8.59c1.29,0,3.67-.44,3.67-4C36.42,43.34,33.17,43.38,33.17,43.38Z"/><path class="cls-1" d="M35.35,34.93c0-3.22-2.18-3.22-2.18-3.22h-9v6.91h8.45C34.06,38.61,35.35,38.15,35.35,34.93Z"/><path class="cls-1" d="M42,0A42,42,0,1,0,84,42,42,42,0,0,0,42,0Zm7.43,28H62.21v3.8H49.44ZM43,48c0,9.44-9.82,9.13-9.82,9.13H17.07V26.21h16.1c4.89,0,8.75,2.71,8.75,8.24s-4.72,5.89-4.72,5.89C43.42,40.34,43,48,43,48Zm23.87-.51h-16c0,5.75,5.45,5.38,5.45,5.38,5.14,0,5-3.32,5-3.32h5.44c0,8.83-10.58,8.22-10.58,8.22C43.39,57.79,44.21,46,44.21,46s0-11.89,11.88-11.89C68.62,34.08,66.86,47.51,66.86,47.51Z"/></g></g></svg>