<svg xmlns="http://www.w3.org/2000/svg" viewBox="0 0 84.01 84.02"><defs><style>.cls-1{fill:#f4901e;}</style></defs><title>inst_orange</title><g id="Слой_2" data-name="Слой 2"><g id="Layer_1" data-name="Layer 1"><path class="cls-1" d="M42,33.48A8.56,8.56,0,1,0,50.56,42,8.59,8.59,0,0,0,42,33.48Z"/><path class="cls-1" d="M63,35.54c-.05-1.94-.12-3.9-.32-5.83-.44-4.34-3-7.34-7.3-8.15A40.37,40.37,0,0,0,48.53,21C44.18,21,39.82,21,35.47,21a48.36,48.36,0,0,0-6.49.45,8.38,8.38,0,0,0-7.28,6.39,15.06,15.06,0,0,0-.55,3.65c-.11,4.65-.18,9.3-.16,14,0,3,.07,5.93.33,8.87a8.62,8.62,0,0,0,7.42,8.22,43.25,43.25,0,0,0,6.83.49c4.29.07,8.59.05,12.89,0,2,0,3.93-.13,5.89-.33a9.33,9.33,0,0,0,5-1.94,9.51,9.51,0,0,0,3.45-7.41c.19-3.91.23-7.83.33-11.75H63C63,39.59,63.08,37.57,63,35.54ZM42,55.22a13.19,13.19,0,1,1,13.2-13.17A13.14,13.14,0,0,1,42,55.22ZM55.71,31.43a3.13,3.13,0,0,1-3.1-3.12,3.08,3.08,0,0,1,3.08-3.06,3,3,0,0,1,3.1,3.06A3.08,3.08,0,0,1,55.71,31.43Z"/><path class="cls-1" d="M42,0A42,42,0,1,0,84,42,42,42,0,0,0,42,0ZM67.63,50.15a25.1,25.1,0,0,1-1,7.94,12.93,12.93,0,0,1-10.37,9,42,42,0,0,1-7.1.58c-5.08.07-10.16,0-15.24,0a25.07,25.07,0,0,1-7.94-1,12.91,12.91,0,0,1-9-10.34,42.08,42.08,0,0,1-.58-7.1c-.07-5.1,0-10.2,0-15.3a24.79,24.79,0,0,1,1-7.94,12.88,12.88,0,0,1,10.36-9,49.4,49.4,0,0,1,7.1-.59c2.4-.09,4.8,0,7.2,0V16.3c3.45.06,6.9.1,10.35.19a16.84,16.84,0,0,1,8.49,2.21,12.77,12.77,0,0,1,6.17,9.05,45.54,45.54,0,0,1,.58,7.1C67.72,40,67.69,45.05,67.63,50.15Z"/></g></g></svg>