<svg xmlns="http://www.w3.org/2000/svg" viewBox="0 0 84.01 84.01"><defs><style>.cls-1{fill:#fff;}</style></defs><title>tg</title><g id="Слой_2" data-name="Слой 2"><g id="Layer_1" data-name="Layer 1"><path class="cls-1" d="M42,0A42,42,0,1,0,84,42,42,42,0,0,0,42,0ZM63.78,29q-3.08,14.6-6.19,29.21A5.18,5.18,0,0,1,57,59.83a1.8,1.8,0,0,1-2.14.91A4.2,4.2,0,0,1,53.31,60C50.2,57.66,47.07,55.36,44,53a.61.61,0,0,0-1,.07c-1.53,1.52-3.09,3-4.63,4.53a2.71,2.71,0,0,1-2.09.9,1.08,1.08,0,0,1-1.13-.85c-1-3-1.94-6-2.91-9-.33-1-.68-2-1-3.06a.88.88,0,0,0-.67-.67c-3-.94-6.1-1.9-9.14-2.85a4.58,4.58,0,0,1-1.17-.48,1.1,1.1,0,0,1-.18-2,5.48,5.48,0,0,1,1.79-1l12.46-4.81L61.25,23.49l.21-.08c1.69-.63,3,.25,3,2.15A26.94,26.94,0,0,1,63.78,29Z"/><path class="cls-1" d="M55.92,30a3.12,3.12,0,0,0-1.2.51L33.13,44.09a.67.67,0,0,0-.32.93c.89,2.66,1.76,5.33,2.63,8,.29.88.57,1.77.86,2.65.17-.07.15-.18.16-.27.2-2.19.42-4.38.6-6.57a1.79,1.79,0,0,1,.63-1.32q8.78-7.87,17.51-15.79c.37-.33.74-.66,1.1-1,.15-.14.35-.3.23-.54S56.15,30,55.92,30Z"/></g></g></svg>