<svg xmlns="http://www.w3.org/2000/svg" viewBox="0 0 83.72 83.72"><defs><style>.cls-1{fill:#fff;fill-rule:evenodd;}</style></defs><title>vk</title><g id="Слой_2" data-name="Слой 2"><g id="Layer_1" data-name="Layer 1"><path class="cls-1" d="M41.86,0A41.86,41.86,0,1,0,83.72,41.86,41.86,41.86,0,0,0,41.86,0ZM63.11,51.05c1.18,1.22,3.76,3.23,3.3,5.29-.45,1.87-3.25,1.18-6,1.3-3.12.13-5,.2-6.85-1.3a20.51,20.51,0,0,1-2.25-2.51c-.78-.87-1.74-2.4-3.07-2.33-2.36.1-1.63,3.42-2.48,5.67-13.19,2.09-18.48-6.08-23.15-14a118.71,118.71,0,0,1-5.54-12.06l9.32,0s3,5.45,3.8,6.85a30.48,30.48,0,0,0,2.18,3.2C33,42,34,43.77,35.15,43.62c1.81-.22,2.14-7.23,1-9.59-.45-1-1.52-1.29-2.63-1.6.38-2.36,10.46-2.87,12.1-1C48,34.05,44,41.46,47.25,43.62c4.54-2.38,8.44-12.37,8.44-12.37l10.94.07s-1.71,5.4-3.52,7.78c-1,1.43-4.49,4.54-4.35,6.86C58.87,47.8,61.67,49.58,63.11,51.05Z"/></g></g></svg>